{
  "accessors": [
    {
      "bufferView": 2,
      "componentType": 5126,
      "count": 4299,
      "max": [
        1.4790562391281128,
        0.5381128191947937,
        0.64950829744338989
      ],
      "min": [
        -0.034397568553686142,
        -0.0010783892357721925,
        -0.032227631658315659
      ],
      "type": "VEC3"
    },
    {
      "bufferView": 2,
      "byteOffset": 51588,
      "componentType": 5126,
      "count": 4299,
      "max": [
        1,
        1,
        1
      ],
      "min": [
        -1,
        -1,
        -1
      ],
      "type": "VEC3"
    },
    {
      "bufferView": 3,
      "componentType": 5126,
      "count": 4299,
      "max": [
        1,
        1,
        1,
        1
      ],
      "min": [
        -1,
        -1,
        -1,
        -1
      ],
      "type": "VEC4"
    },
    {
      "bufferView": 1,
      "componentType": 5126,
      "count": 4299,
      "max": [
        53.144950866699219,
        30.676967620849609
      ],
      "min": [
        -53.144954681396484,
        -58.306674957275391
      ],
      "type": "VEC2"
    },
    {
      "bufferView": 0,
      "componentType": 5125,
      "count": 7176,
      "max": [
        4298
      ],
      "min": [
        0
      ],
      "type": "SCALAR"
    }
  ],
  "asset": {
    "extras": {
      "author": "filipeb2011 (https://sketchfab.com/filipeb2011)",
      "license": "CC-BY-4.0 (http://creativecommons.org/licenses/by/4.0/)",
      "source": "https://sketchfab.com/models/f6a23dce5c8e46efa72ae855289e2939",
      "title": "Coffe Table01"
    },
    "generator": "Sketchfab-3.18.6",
    "version": "2.0"
  },
  "bufferViews": [
    {
      "buffer": 0,
      "byteLength": 28704,
      "byteOffset": 0,
      "name": "floatBufferViews",
      "target": 34963
    },
    {
      "buffer": 0,
      "byteLength": 34392,
      "byteOffset": 28704,
      "byteStride": 8,
      "name": "floatBufferViews",
      "target": 34962
    },
    {
      "buffer": 0,
      "byteLength": 103176,
      "byteOffset": 63096,
      "byteStride": 12,
      "name": "floatBufferViews",
      "target": 34962
    },
    {
      "buffer": 0,
      "byteLength": 68784,
      "byteOffset": 166272,
      "byteStride": 16,
      "name": "floatBufferViews",
      "target": 34962
    }
  ],
  "buffers": [
    {
      "byteLength": 235056,
      "uri": "scene.bin"
    }
  ],
  "images": [
    {
      "uri": "textures/spec__3b3b3b_21_blackmtlss_wf_70_ANDO1675_baseColor.png"
    }
  ],
  "materials": [
    {
      "doubleSided": true,
      "emissiveFactor": [
        0,
        0,
        0
      ],
      "name": "spec__3b3b3b_21_blackmtlss_wf_70_ANDO1675",
      "pbrMetallicRoughness": {
        "baseColorFactor": [
          1,
          1,
          1,
          1
        ],
        "baseColorTexture": {
          "index": 0,
          "texCoord": 0
        },
        "metallicFactor": 0,
        "roughnessFactor": 0.93021349659999997
      }
    }
  ],
  "meshes": [
    {
      "name": "Mesh1_spec__3b3b3b_21_blackmtlss_wf_70_ANDO1675_0",
      "primitives": [
        {
          "attributes": {
            "NORMAL": 1,
            "POSITION": 0,
            "TANGENT": 2,
            "TEXCOORD_0": 3
          },
          "indices": 4,
          "material": 0,
          "mode": 4
        }
      ]
    }
  ],
  "nodes": [
    {
      "children": [
        1
      ],
      "name": "RootNode (gltf orientation matrix)",
      "rotation": [
        -0.70710678118654746,
        -0,
        -0,
        0.70710678118654757
      ]
    },
    {
      "children": [
        2
      ],
      "name": "RootNode (model correction matrix)"
    },
    {
      "children": [
        3
      ],
      "matrix": [
        1,
        0,
        0,
        0,
        0,
        0,
        1,
        0,
        0,
        -1,
        0,
        0,
        0,
        0,
        0,
        1
      ],
      "name": "coffe table.fbx"
    },
    {
      "children": [
        4
      ],
      "name": "RootNode"
    },
    {
      "children": [
        5
      ],
      "name": "Model"
    },
    {
      "children": [
        6
      ],
      "name": "ANDO1675_1_1"
    },
    {
      "children": [
        7
      ],
      "name": "ANDO1675_1"
    },
    {
      "children": [
        8
      ],
      "name": "not_clear_obj_0_v6"
    },
    {
      "children": [
        9
      ],
      "name": "Component_1_1"
    },
    {
      "children": [
        10
      ],
      "name": "Mesh1"
    },
    {
      "mesh": 0,
      "name": "Mesh1_spec__3b3b3b_21_blackmtlss_wf_70_ANDO1675_0"
    }
  ],
  "samplers": [
    {
      "magFilter": 9729,
      "minFilter": 9987,
      "wrapS": 10497,
      "wrapT": 10497
    }
  ],
  "scene": 0,
  "scenes": [
    {
      "name": "OSG_Scene",
      "nodes": [
        0
      ]
    }
  ],
  "textures": [
    {
      "sampler": 0,
      "source": 0
    }
  ]
}

