{
  "accessors": [
    {
      "bufferView": 1,
      "componentType": 5126,
      "count": 65532,
      "max": [
        4.0855536460876465,
        4.0018267631530762,
        2.1511397361755371
      ],
      "min": [
        -4.4732837677001953,
        -4.0018272399902344,
        0.94798392057418823
      ],
      "type": "VEC3"
    },
    {
      "bufferView": 1,
      "byteOffset": 786384,
      "componentType": 5126,
      "count": 65532,
      "max": [
        0.99664860963821411,
        0.99770569801330566,
        0.99992454051971436
      ],
      "min": [
        -0.99653548002243042,
        -0.99770665168762207,
        -0.99890637397766113
      ],
      "type": "VEC3"
    },
    {
      "bufferView": 0,
      "componentType": 5125,
      "count": 98298,
      "max": [
        65531
      ],
      "min": [
        0
      ],
      "type": "SCALAR"
    },
    {
      "bufferView": 1,
      "byteOffset": 1572768,
      "componentType": 5126,
      "count": 65532,
      "max": [
        4.1460533142089844,
        4.0615372657775879,
        2.0595412254333496
      ],
      "min": [
        -4.538055419921875,
        -4.0615367889404297,
        0.047824699431657791
      ],
      "type": "VEC3"
    },
    {
      "bufferView": 1,
      "byteOffset": 2359152,
      "componentType": 5126,
      "count": 65532,
      "max": [
        0.99999183416366577,
        0.99999713897705078,
        0.99997121095657349
      ],
      "min": [
        -0.99997121095657349,
        -0.99999713897705078,
        -0.99999958276748657
      ],
      "type": "VEC3"
    },
    {
      "bufferView": 0,
      "byteOffset": 393192,
      "componentType": 5125,
      "count": 98298,
      "max": [
        65531
      ],
      "min": [
        0
      ],
      "type": "SCALAR"
    },
    {
      "bufferView": 1,
      "byteOffset": 3145536,
      "componentType": 5126,
      "count": 49928,
      "max": [
        4.192899227142334,
        4.1092796325683594,
        1.1557223796844482
      ],
      "min": [
        -4.5984287261962891,
        -4.109278678894043,
        0.042854230850934982
      ],
      "type": "VEC3"
    },
    {
      "bufferView": 1,
      "byteOffset": 3744672,
      "componentType": 5126,
      "count": 49928,
      "max": [
        0.9987180233001709,
        0.99860900640487671,
        0.99997216463088989
      ],
      "min": [
        -0.9975554347038269,
        -0.99860048294067383,
        -0.99999958276748657
      ],
      "type": "VEC3"
    },
    {
      "bufferView": 0,
      "byteOffset": 786384,
      "componentType": 5125,
      "count": 74892,
      "max": [
        49927
      ],
      "min": [
        0
      ],
      "type": "SCALAR"
    },
    {
      "bufferView": 1,
      "byteOffset": 4343808,
      "componentType": 5126,
      "count": 65532,
      "max": [
        4.2860417366027832,
        4.0018267631530762,
        2.099437952041626
      ],
      "min": [
        -4.2869548797607422,
        -4.0018272399902344,
        0.95352602005004883
      ],
      "type": "VEC3"
    },
    {
      "bufferView": 1,
      "byteOffset": 5130192,
      "componentType": 5126,
      "count": 65532,
      "max": [
        0.99637162685394287,
        0.99764847755432129,
        0.99999552965164185
      ],
      "min": [
        -0.9963650107383728,
        -0.99764829874038696,
        -0.99825042486190796
      ],
      "type": "VEC3"
    },
    {
      "bufferView": 0,
      "byteOffset": 1085952,
      "componentType": 5125,
      "count": 98298,
      "max": [
        65531
      ],
      "min": [
        0
      ],
      "type": "SCALAR"
    },
    {
      "bufferView": 1,
      "byteOffset": 5916576,
      "componentType": 5126,
      "count": 65533,
      "max": [
        4.3485441207885742,
        4.0615372657775879,
        2.0203421115875244
      ],
      "min": [
        -4.3494372367858887,
        -4.0615367889404297,
        0.053368169814348221
      ],
      "type": "VEC3"
    },
    {
      "bufferView": 1,
      "byteOffset": 6702972,
      "componentType": 5126,
      "count": 65533,
      "max": [
        0.99999690055847168,
        0.99999707937240601,
        0.9999421238899231
      ],
      "min": [
        -0.99999690055847168,
        -0.99999707937240601,
        -0.99999874830245972
      ],
      "type": "VEC3"
    },
    {
      "bufferView": 0,
      "byteOffset": 1479144,
      "componentType": 5125,
      "count": 98301,
      "max": [
        65532
      ],
      "min": [
        0
      ],
      "type": "SCALAR"
    },
    {
      "bufferView": 1,
      "byteOffset": 7489368,
      "componentType": 5126,
      "count": 49925,
      "max": [
        4.3984723091125488,
        4.1092796325683594,
        1.1450345516204834
      ],
      "min": [
        -4.3993473052978516,
        -4.109278678894043,
        0.048395860940217972
      ],
      "type": "VEC3"
    },
    {
      "bufferView": 1,
      "byteOffset": 8088468,
      "componentType": 5126,
      "count": 49925,
      "max": [
        0.9984394907951355,
        0.9985191822052002,
        0.9999614953994751
      ],
      "min": [
        -0.9984515905380249,
        -0.99850791692733765,
        -0.99999874830245972
      ],
      "type": "VEC3"
    },
    {
      "bufferView": 0,
      "byteOffset": 1872348,
      "componentType": 5125,
      "count": 74889,
      "max": [
        49924
      ],
      "min": [
        0
      ],
      "type": "SCALAR"
    },
    {
      "bufferView": 1,
      "byteOffset": 8687568,
      "componentType": 5126,
      "count": 65532,
      "max": [
        85.713729858398438,
        5.7093877792358398,
        1.1307005882263184
      ],
      "min": [
        -1.2733368873596191,
        0.80557680130004883,
        -15.117956161499023
      ],
      "type": "VEC3"
    },
    {
      "bufferView": 1,
      "byteOffset": 9473952,
      "componentType": 5126,
      "count": 65532,
      "max": [
        0.99992614984512329,
        1,
        1
      ],
      "min": [
        -0.99992614984512329,
        -1,
        -0.99998992681503296
      ],
      "type": "VEC3"
    },
    {
      "bufferView": 0,
      "byteOffset": 2171904,
      "componentType": 5125,
      "count": 99387,
      "max": [
        65531
      ],
      "min": [
        0
      ],
      "type": "SCALAR"
    },
    {
      "bufferView": 1,
      "byteOffset": 10260336,
      "componentType": 5126,
      "count": 65532,
      "max": [
        85.713729858398438,
        9.1709022521972656,
        1.1307005882263184
      ],
      "min": [
        -1.2733368873596191,
        4.2670907974243164,
        -15.117956161499023
      ],
      "type": "VEC3"
    },
    {
      "bufferView": 1,
      "byteOffset": 11046720,
      "componentType": 5126,
      "count": 65532,
      "max": [
        0.99992614984512329,
        1,
        1
      ],
      "min": [
        -0.99992614984512329,
        -1,
        -0.99998992681503296
      ],
      "type": "VEC3"
    },
    {
      "bufferView": 0,
      "byteOffset": 2569452,
      "componentType": 5125,
      "count": 99138,
      "max": [
        65531
      ],
      "min": [
        0
      ],
      "type": "SCALAR"
    },
    {
      "bufferView": 1,
      "byteOffset": 11833104,
      "componentType": 5126,
      "count": 65532,
      "max": [
        85.713729858398438,
        14.352740287780762,
        1.1307005882263184
      ],
      "min": [
        -1.2733368873596191,
        7.8347253799438477,
        -15.117956161499023
      ],
      "type": "VEC3"
    },
    {
      "bufferView": 1,
      "byteOffset": 12619488,
      "componentType": 5126,
      "count": 65532,
      "max": [
        0.99992614984512329,
        1,
        1
      ],
      "min": [
        -0.99992614984512329,
        -1,
        -0.99998992681503296
      ],
      "type": "VEC3"
    },
    {
      "bufferView": 0,
      "byteOffset": 2966004,
      "componentType": 5125,
      "count": 99324,
      "max": [
        65531
      ],
      "min": [
        0
      ],
      "type": "SCALAR"
    },
    {
      "bufferView": 1,
      "byteOffset": 13405872,
      "componentType": 5126,
      "count": 23435,
      "max": [
        85.713729858398438,
        14.36317253112793,
        1.1307005882263184
      ],
      "min": [
        -1.2733368873596191,
        12.920875549316406,
        -15.117956161499023
      ],
      "type": "VEC3"
    },
    {
      "bufferView": 1,
      "byteOffset": 13687092,
      "componentType": 5126,
      "count": 23435,
      "max": [
        0.99974560737609863,
        1,
        1
      ],
      "min": [
        -0.99974560737609863,
        -1,
        -0.99998992681503296
      ],
      "type": "VEC3"
    },
    {
      "bufferView": 0,
      "byteOffset": 3363300,
      "componentType": 5125,
      "count": 35463,
      "max": [
        23434
      ],
      "min": [
        0
      ],
      "type": "SCALAR"
    },
    {
      "bufferView": 1,
      "byteOffset": 13968312,
      "componentType": 5126,
      "count": 65534,
      "max": [
        86.305793762207031,
        16.705442428588867,
        1
      ],
      "min": [
        -19.172933578491211,
        -1,
        -19.347034454345703
      ],
      "type": "VEC3"
    },
    {
      "bufferView": 1,
      "byteOffset": 14754720,
      "componentType": 5126,
      "count": 65534,
      "max": [
        1,
        1,
        1
      ],
      "min": [
        -1,
        -1,
        -1
      ],
      "type": "VEC3"
    },
    {
      "bufferView": 0,
      "byteOffset": 3505152,
      "componentType": 5125,
      "count": 106752,
      "max": [
        65533
      ],
      "min": [
        0
      ],
      "type": "SCALAR"
    },
    {
      "bufferView": 1,
      "byteOffset": 15541128,
      "componentType": 5126,
      "count": 8021,
      "max": [
        86.3057861328125,
        16.705442428588867,
        1
      ],
      "min": [
        -0.95220744609832764,
        7.8527212142944336,
        -19.324436187744141
      ],
      "type": "VEC3"
    },
    {
      "bufferView": 1,
      "byteOffset": 15637380,
      "componentType": 5126,
      "count": 8021,
      "max": [
        0.99067431688308716,
        1,
        1
      ],
      "min": [
        -0.98748773336410522,
        -1,
        -0.99999070167541504
      ],
      "type": "VEC3"
    },
    {
      "bufferView": 0,
      "byteOffset": 3932160,
      "componentType": 5125,
      "count": 12480,
      "max": [
        8020
      ],
      "min": [
        0
      ],
      "type": "SCALAR"
    }
  ],
  "asset": {
    "extras": {
      "author": "EricBurzycki (https://sketchfab.com/EricBurzycki)",
      "license": "CC-BY-4.0 (http://creativecommons.org/licenses/by/4.0/)",
      "source": "https://sketchfab.com/models/c4bac7f5aa5341598d41c2fbfef1391c",
      "title": "Test Chair (not finished)"
    },
    "generator": "Sketchfab-3.18.7",
    "version": "2.0"
  },
  "bufferViews": [
    {
      "buffer": 0,
      "byteLength": 3982080,
      "byteOffset": 0,
      "name": "floatBufferViews",
      "target": 34963
    },
    {
      "buffer": 0,
      "byteLength": 15733632,
      "byteOffset": 3982080,
      "byteStride": 12,
      "name": "floatBufferViews",
      "target": 34962
    }
  ],
  "buffers": [
    {
      "byteLength": 19715712,
      "uri": "scene.bin"
    }
  ],
  "materials": [
    {
      "doubleSided": true,
      "emissiveFactor": [
        0,
        0,
        0
      ],
      "name": "Scene_-_Root",
      "pbrMetallicRoughness": {
        "baseColorFactor": [
          1,
          1,
          1,
          1
        ],
        "metallicFactor": 0,
        "roughnessFactor": 0.59999999999999998
      }
    }
  ],
  "meshes": [
    {
      "name": "Back_Coushin__0",
      "primitives": [
        {
          "attributes": {
            "NORMAL": 1,
            "POSITION": 0
          },
          "indices": 2,
          "material": 0,
          "mode": 4
        }
      ]
    },
    {
      "name": "Back_Coushin__0",
      "primitives": [
        {
          "attributes": {
            "NORMAL": 4,
            "POSITION": 3
          },
          "indices": 5,
          "material": 0,
          "mode": 4
        }
      ]
    },
    {
      "name": "Back_Coushin__0",
      "primitives": [
        {
          "attributes": {
            "NORMAL": 7,
            "POSITION": 6
          },
          "indices": 8,
          "material": 0,
          "mode": 4
        }
      ]
    },
    {
      "name": "Base_Coushin__0",
      "primitives": [
        {
          "attributes": {
            "NORMAL": 10,
            "POSITION": 9
          },
          "indices": 11,
          "material": 0,
          "mode": 4
        }
      ]
    },
    {
      "name": "Base_Coushin__0",
      "primitives": [
        {
          "attributes": {
            "NORMAL": 13,
            "POSITION": 12
          },
          "indices": 14,
          "material": 0,
          "mode": 4
        }
      ]
    },
    {
      "name": "Base_Coushin__0",
      "primitives": [
        {
          "attributes": {
            "NORMAL": 16,
            "POSITION": 15
          },
          "indices": 17,
          "material": 0,
          "mode": 4
        }
      ]
    },
    {
      "name": "SupportBackBar__0",
      "primitives": [
        {
          "attributes": {
            "NORMAL": 19,
            "POSITION": 18
          },
          "indices": 20,
          "material": 0,
          "mode": 4
        }
      ]
    },
    {
      "name": "SupportBackBar__0",
      "primitives": [
        {
          "attributes": {
            "NORMAL": 22,
            "POSITION": 21
          },
          "indices": 23,
          "material": 0,
          "mode": 4
        }
      ]
    },
    {
      "name": "SupportBackBar__0",
      "primitives": [
        {
          "attributes": {
            "NORMAL": 25,
            "POSITION": 24
          },
          "indices": 26,
          "material": 0,
          "mode": 4
        }
      ]
    },
    {
      "name": "SupportBackBar__0",
      "primitives": [
        {
          "attributes": {
            "NORMAL": 28,
            "POSITION": 27
          },
          "indices": 29,
          "material": 0,
          "mode": 4
        }
      ]
    },
    {
      "name": "SupportBar__0",
      "primitives": [
        {
          "attributes": {
            "NORMAL": 31,
            "POSITION": 30
          },
          "indices": 32,
          "material": 0,
          "mode": 4
        }
      ]
    },
    {
      "name": "SupportBar__0",
      "primitives": [
        {
          "attributes": {
            "NORMAL": 34,
            "POSITION": 33
          },
          "indices": 35,
          "material": 0,
          "mode": 4
        }
      ]
    }
  ],
  "nodes": [
    {
      "children": [
        1
      ],
      "name": "RootNode (gltf orientation matrix)",
      "rotation": [
        -0.70710678118654746,
        -0,
        -0,
        0.70710678118654757
      ]
    },
    {
      "children": [
        2
      ],
      "name": "RootNode (model correction matrix)"
    },
    {
      "children": [
        3
      ],
      "matrix": [
        1,
        0,
        0,
        0,
        0,
        0,
        1,
        0,
        0,
        -1,
        0,
        0,
        0,
        0,
        0,
        1
      ],
      "name": "f73a33edfb0b4e808b498288bbd101af.fbx"
    },
    {
      "children": [
        4,
        7,
        10,
        13,
        17,
        21,
        26,
        29,
        32
      ],
      "name": "RootNode"
    },
    {
      "children": [
        5
      ],
      "matrix": [
        -29.08647719990347,
        -5.5189064575668629,
        -95.517119101714371,
        0,
        56.639309131094492,
        79.467234285632031,
        -21.839123978419661,
        0,
        77.110087759933748,
        -60.452463565620441,
        -19.988346967737169,
        0,
        1163.9664306640625,
        1020.7767333984375,
        -301.14794921875,
        1
      ],
      "name": "Lamp.003"
    },
    {
      "children": [
        6
      ],
      "matrix": [
        1,
        0,
        0,
        0,
        0,
        2.2204460492503131e-16,
        1,
        0,
        0,
        -1,
        2.2204460492503131e-16,
        0,
        0,
        0,
        0,
        1
      ],
      "name": ""
    },
    {
      "name": ""
    },
    {
      "children": [
        8
      ],
      "matrix": [
        -29.08647719990347,
        -5.5189064575668629,
        -95.517119101714371,
        0,
        56.639309131094492,
        79.467234285632031,
        -21.839123978419661,
        0,
        77.110087759933748,
        -60.452463565620441,
        -19.988346967737169,
        0,
        -949.80078125,
        1020.7767333984375,
        -301.14794921875,
        1
      ],
      "name": "Lamp.002"
    },
    {
      "children": [
        9
      ],
      "matrix": [
        1,
        0,
        0,
        0,
        0,
        2.2204460492503131e-16,
        1,
        0,
        0,
        -1,
        2.2204460492503131e-16,
        0,
        0,
        0,
        0,
        1
      ],
      "name": ""
    },
    {
      "name": ""
    },
    {
      "children": [
        11
      ],
      "matrix": [
        -29.08647719990347,
        -5.5189064575668629,
        -95.517119101714371,
        0,
        56.639309131094492,
        79.467234285632031,
        -21.839123978419661,
        0,
        77.110087759933748,
        -60.452463565620441,
        -19.988346967737169,
        0,
        -56.804084777832031,
        1020.7767333984375,
        536.92626953125,
        1
      ],
      "name": "Lamp.001"
    },
    {
      "children": [
        12
      ],
      "matrix": [
        1,
        0,
        0,
        0,
        0,
        2.2204460492503131e-16,
        1,
        0,
        0,
        -1,
        2.2204460492503131e-16,
        0,
        0,
        0,
        0,
        1
      ],
      "name": ""
    },
    {
      "name": ""
    },
    {
      "children": [
        14,
        15,
        16
      ],
      "matrix": [
        55.810791942931218,
        -82.976837145692926,
        0,
        0,
        6.2645769183244937e-06,
        4.2135975708568196e-06,
        -99.999999999999716,
        0,
        82.976837145692684,
        55.810791942931061,
        7.5497899598708784e-06,
        0,
        -536.40460205078125,
        387.3851318359375,
        -300,
        1
      ],
      "name": "Back_Coushin"
    },
    {
      "mesh": 0,
      "name": "Back_Coushin__0"
    },
    {
      "mesh": 1,
      "name": "Back_Coushin__0"
    },
    {
      "mesh": 2,
      "name": "Back_Coushin__0"
    },
    {
      "children": [
        18,
        19,
        20
      ],
      "matrix": [
        100,
        0,
        0,
        0,
        0,
        -1.6292067939183141e-05,
        -99.999999999998678,
        0,
        0,
        99.999999999998678,
        -1.6292067939183141e-05,
        0,
        300.00003051757812,
        -35.583831787109375,
        -300,
        1
      ],
      "name": "Base_Coushin"
    },
    {
      "mesh": 3,
      "name": "Base_Coushin__0"
    },
    {
      "mesh": 4,
      "name": "Base_Coushin__0"
    },
    {
      "mesh": 5,
      "name": "Base_Coushin__0"
    },
    {
      "children": [
        22,
        23,
        24,
        25
      ],
      "matrix": [
        16.560850143432617,
        0,
        0,
        0,
        -0,
        -6.7413241454733516e-06,
        -41.377952575683047,
        0,
        0,
        51.092624664305966,
        -8.3240451222206811e-06,
        0,
        -706.24481201171875,
        710.77410888671875,
        24.929557800292969,
        1
      ],
      "name": "SupportBackBar"
    },
    {
      "mesh": 6,
      "name": "SupportBackBar__0"
    },
    {
      "mesh": 7,
      "name": "SupportBackBar__0"
    },
    {
      "mesh": 8,
      "name": "SupportBackBar__0"
    },
    {
      "mesh": 9,
      "name": "SupportBackBar__0"
    },
    {
      "children": [
        27,
        28
      ],
      "matrix": [
        16.560850143432617,
        0,
        0,
        0,
        -0,
        -6.7413241454733516e-06,
        -41.377952575683047,
        0,
        0,
        51.092624664305966,
        -8.3240451222206811e-06,
        0,
        -706.24481201171875,
        710.77410888671875,
        24.929557800292969,
        1
      ],
      "name": "SupportBar"
    },
    {
      "mesh": 10,
      "name": "SupportBar__0"
    },
    {
      "mesh": 11,
      "name": "SupportBar__0"
    },
    {
      "children": [
        30
      ],
      "matrix": [
        -29.08647719990347,
        -5.5189064575668629,
        -95.517119101714371,
        0,
        56.639309131094492,
        79.467234285632031,
        -21.839123978419661,
        0,
        77.110087759933748,
        -60.452463565620441,
        -19.988346967737169,
        0,
        407.62454223632812,
        1020.7767333984375,
        -968.63592529296875,
        1
      ],
      "name": "Lamp"
    },
    {
      "children": [
        31
      ],
      "matrix": [
        1,
        0,
        0,
        0,
        0,
        2.2204460492503131e-16,
        1,
        0,
        0,
        -1,
        2.2204460492503131e-16,
        0,
        0,
        0,
        0,
        1
      ],
      "name": ""
    },
    {
      "name": ""
    },
    {
      "children": [
        33
      ],
      "matrix": [
        -65.155832803290963,
        -44.527135765708579,
        -61.417030473735487,
        0,
        -32.40134137821245,
        89.539574512336159,
        -30.542088974418615,
        0,
        68.592054721299746,
        -1.0718647115348782e-05,
        -72.767633623962695,
        0,
        748.1131591796875,
        534.36651611328125,
        1375.1357421875,
        1
      ],
      "name": "Camera"
    },
    {
      "name": ""
    }
  ],
  "scene": 0,
  "scenes": [
    {
      "name": "OSG_Scene",
      "nodes": [
        0
      ]
    }
  ]
}

