{
    "accessors": [
        {
            "bufferView": 0,
            "byteOffset": 0,
            "componentType": 5126,
            "count": 106,
            "max": [
                186.08006286621094,
                366.6742248535156,
                8.627630233764648
            ],
            "min": [
                -126.67140197753906,
                -355.8896484375,
                -8.627636909484863
            ],
            "name": "accessor_buffer_Cube_POSITION_0",
            "type": "VEC3"
        },
        {
            "bufferView": 1,
            "byteOffset": 0,
            "componentType": 5126,
            "count": 106,
            "max": [
                1.0,
                1.0,
                1.0
            ],
            "min": [
                -1.0,
                -1.0,
                -1.0
            ],
            "name": "accessor_buffer_Cube_NORMAL_0",
            "type": "VEC3"
        },
        {
            "bufferView": 2,
            "byteOffset": 0,
            "componentType": 5123,
            "count": 36,
            "max": [
                23
            ],
            "min": [
                0
            ],
            "name": "accessor_buffer_Cube_0",
            "type": "SCALAR"
        },
        {
            "bufferView": 3,
            "byteOffset": 0,
            "componentType": 5123,
            "count": 132,
            "max": [
                105
            ],
            "min": [
                24
            ],
            "name": "accessor_buffer_Cube_1",
            "type": "SCALAR"
        }
    ],
    "asset": {
        "copyright": "",
        "generator": "blendergltf v1.2.0",
        "version": "2.0"
    },
    "bufferViews": [
        {
            "buffer": 0,
            "byteLength": 1272,
            "byteOffset": 0,
            "byteStride": 12,
            "name": "bufferView_buffer_Cube_POSITION_0",
            "target": 34962
        },
        {
            "buffer": 0,
            "byteLength": 1272,
            "byteOffset": 1272,
            "byteStride": 12,
            "name": "bufferView_buffer_Cube_NORMAL_0",
            "target": 34962
        },
        {
            "buffer": 0,
            "byteLength": 76,
            "byteOffset": 2544,
            "name": "bufferView_buffer_Cube_0",
            "target": 34963
        },
        {
            "buffer": 0,
            "byteLength": 268,
            "byteOffset": 2620,
            "name": "bufferView_buffer_Cube_1",
            "target": 34963
        }
    ],
    "buffers": [
        {
            "byteLength": 2888,
            "name": "buffer_door3",
            "uri": "buffer_door3.bin"
        }
    ],
    "materials": [
        {
            "alphaMode": "OPAQUE",
            "doubleSided": false,
            "emissiveFactor": [
                0.0,
                0.0,
                0.0
            ],
            "name": "Material",
            "pbrMetallicRoughness": {
                "baseColorFactor": [
                    0.2065463364124298,
                    0.0817933902144432,
                    0.01932610385119915,
                    1.0
                ],
                "metallicFactor": 0.0,
                "roughnessFactor": 1.0
            }
        },
        {
            "alphaMode": "OPAQUE",
            "doubleSided": false,
            "emissiveFactor": [
                0.0,
                0.0,
                0.0
            ],
            "name": "Material.001",
            "pbrMetallicRoughness": {
                "baseColorFactor": [
                    0.10629468411207199,
                    0.026483822613954544,
                    0.0,
                    1.0
                ],
                "metallicFactor": 0.0,
                "roughnessFactor": 1.0
            }
        }
    ],
    "meshes": [
        {
            "name": "Cube",
            "primitives": [
                {
                    "attributes": {
                        "NORMAL": 1,
                        "POSITION": 0
                    },
                    "indices": 2,
                    "material": 0,
                    "mode": 4
                },
                {
                    "attributes": {
                        "NORMAL": 1,
                        "POSITION": 0
                    },
                    "indices": 3,
                    "material": 1,
                    "mode": 4
                }
            ]
        }
    ],
    "nodes": [
        {
            "mesh": 0,
            "name": "Cube",
            "rotation": [
                0.0,
                -0.3826834559440613,
                0.0,
                0.9238795042037964
            ],
            "scale": [
                0.9999999403953552,
                1.0,
                0.9999999403953552
            ],
            "translation": [
                0.0,
                0.0,
                0.0
            ]
        }
    ],
    "scene": 0,
    "scenes": [
        {
            "extras": {
                "background_color": [
                    0.05087608844041824,
                    0.05087608844041824,
                    0.05087608844041824
                ],
                "frames_per_second": 24
            },
            "name": "Scene",
            "nodes": [
                0
            ]
        }
    ]
}
